<?xml version="1.0" standalone="no"?>
<!DOCTYPE svg PUBLIC "-//W3C//DTD SVG 20010904//EN"
 "http://www.w3.org/TR/2001/REC-SVG-20010904/DTD/svg10.dtd">
<svg version="1.0" xmlns="http://www.w3.org/2000/svg"
 width="144.000000pt" height="144.000000pt" viewBox="0 0 144.000000 144.000000"
 preserveAspectRatio="xMidYMid meet">
<metadata>
Created by potrace 1.11, written by Peter Selinger 2001-2013
</metadata>
<g transform="translate(0.000000,144.000000) scale(0.100000,-0.100000)"
fill="#000000" stroke="none">
<path d="M125 1416 c-38 -17 -90 -72 -104 -109 -7 -19 -11 -220 -11 -594 l0
-566 25 -43 c15 -26 43 -54 69 -69 l43 -25 573 0 573 0 43 25 c26 15 54 43 69
69 l25 43 0 567 c0 460 -3 573 -14 599 -17 39 -71 92 -109 106 -45 17 -1143
14 -1182 -3z m1035 -366 l0 -110 -440 0 -440 0 0 110 0 110 440 0 440 0 0
-110z"/>
</g>
</svg>
